<?xml version="1.0" encoding="UTF-8"?>
<svg xmlns="http://www.w3.org/2000/svg" viewBox="0 0 288.06 376.58">
  <defs>
    <style>
      .cls-1 {
        fill: #3a3a3a;
      }

      .cls-2 {
        fill: #3a3a3a;
      }

      .cls-3 {
        fill: #ededed;
      }
    </style>
  </defs>
  <g id="Camada_2" data-name="Camada 2">
    <g>
      <g>
        <circle class="cls-2" cx="144.03" cy="133.96" r="121.18"/>
        <path class="cls-2" d="M63.88,218.79s-34.12,43.53-32.71,80.24c.18,4.7,1.06,15.76,7.77,19.14,8.83,4.46,23.99-6.45,26.01-3.32,.42,.65,.09,1.61-.24,2.3,1.92,11.45,3.84,22.9,5.76,34.35l-13.18,5.88h98.82v-122.82l-92.24-15.76Z"/>
        <circle class="cls-2" cx="49.06" cy="305.9" r="20"/>
        <path class="cls-2" d="M225.67,218.79s34.12,43.53,32.71,80.24c-.18,4.7-1.06,15.76-7.77,19.14-8.83,4.46-23.99-6.45-26.01-3.32-.42,.65-.09,1.61,.24,2.3-1.92,11.45-3.84,22.9-5.76,34.35l13.18,5.88h-98.82v-122.82s92.24-15.76,92.24-15.76Z"/>
        <circle class="cls-2" cx="240.49" cy="303.9" r="20"/>
      </g>
      <path class="cls-2" d="M70.47,351.49l-13.41,4.47s-5.88,2.29,1.24,2.29,33.24-.88,33.24-.88l-21.06-5.88Z"/>
      <path class="cls-2" d="M218.9,350.61l13.41,4.47s5.88,2.29-1.24,2.29c-7.12,0-33.24-.88-33.24-.88l21.06-5.88Z"/>
    </g>
  </g>
  <g id="Camada_3" data-name="Camada 3">
    <g>
      <path class="cls-1" d="M64.3,308.67c-4.93,0-8.94-4.01-8.94-8.94s4.01-8.94,8.94-8.94,8.94,4.01,8.94,8.94-4.01,8.94-8.94,8.94Zm0-16.88c-4.38,0-7.94,3.56-7.94,7.94s3.56,7.94,7.94,7.94,7.94-3.56,7.94-7.94-3.56-7.94-7.94-7.94Z"/>
      <path class="cls-1" d="M31.38,297.67c-.07,0-.15-.02-.22-.05-.25-.12-.35-.42-.23-.67,.73-1.47,4.84-8.93,13.86-10.96,10.2-2.3,17.69,4.29,18.51,5.05,.2,.19,.22,.5,.03,.71-.19,.2-.5,.21-.71,.03-.78-.72-7.91-6.99-17.61-4.81-8.58,1.94-12.48,9.03-13.18,10.43-.09,.18-.26,.28-.45,.28Z"/>
      <path class="cls-1" d="M64.88,318.64c-.12,0-.25-.04-.34-.13-.2-.19-.21-.5-.02-.71,.04-.04,3.54-3.88,4.05-11.14,.02-.28,.25-.49,.53-.46,.28,.02,.48,.26,.46,.53-.54,7.64-4.16,11.59-4.32,11.76-.1,.11-.23,.16-.36,.16Z"/>
      <path class="cls-1" d="M225.51,307.65c-4.93,0-8.94-4.01-8.94-8.94s4.01-8.94,8.94-8.94,8.94,4.01,8.94,8.94-4.01,8.94-8.94,8.94Zm0-16.88c-4.38,0-7.94,3.56-7.94,7.94s3.56,7.94,7.94,7.94,7.94-3.56,7.94-7.94-3.56-7.94-7.94-7.94Z"/>
      <path class="cls-1" d="M258.42,296.65c-.18,0-.36-.1-.45-.28-.7-1.4-4.61-8.5-13.18-10.43-9.7-2.19-16.83,4.08-17.61,4.81-.2,.19-.52,.17-.71-.03-.19-.2-.17-.52,.03-.71,.82-.76,8.31-7.35,18.51-5.05,9.01,2.03,13.12,9.49,13.86,10.96,.12,.25,.02,.55-.22,.67-.07,.04-.15,.05-.22,.05Z"/>
      <path class="cls-1" d="M224.93,317.63c-.13,0-.27-.05-.36-.16-.15-.16-3.78-4.11-4.32-11.76-.02-.28,.19-.51,.46-.53,.27-.03,.51,.19,.53,.46,.51,7.29,4.01,11.11,4.05,11.14,.19,.2,.18,.52-.02,.71-.1,.09-.22,.14-.34,.14Z"/>
      <path class="cls-1" d="M57.98,219.28c21.79,20.15,50.62,33.06,80.36,34.36,29.98,1.5,59.34-8.6,82.99-26.92,3.12-2.46,6.17-5.03,9.07-7.77-18.04,18.67-42.43,31.36-68.13,35.37-1.16,.16-6.45,.83-7.47,.96-.93,.05-3.54,.2-4.51,.26-34.03,2.03-68.59-11.95-92.31-36.26h0Z"/>
      <path class="cls-1" d="M65.5,291.62c.39-9.3,3.19-18.29,7.24-26.6-1.72,4.24-3.07,8.61-3.99,13.09-.87,4.39-1.43,9.01-1.25,13.44,0,0-2,.07-2,.07h0Z"/>
      <path class="cls-1" d="M221.83,290.55c.26-9.04-1.88-18.15-5.24-26.53,1,2.06,1.96,4.15,2.77,6.3,2.49,6.51,4.19,13.28,4.47,20.3,0,0-2-.07-2-.07h0Z"/>
    </g>
  </g>
  <g id="Camada_4" data-name="Camada 4">
    <path class="cls-3" d="M66.64,328.66s9.3-11.99,60.13,6.36c0,0,14.21,5.56,15.53,5.74,1.32,.18,19.41-6.62,19.41-6.62,0,0,46.47-15.7,61.44-6.88,.76-3.41,1.51-6.81,2.27-10.22,0,0-1.2,.45-2.53-2-.37-.69-.71-1.31-1.15-2.45-.28-.74-.48-1.36-.61-1.81-50.73,.01-101.46,.02-152.2,.04-.22,1.1-.64,2.61-1.5,4.25-.83,1.59-1.79,2.78-2.55,3.58l1.76,10.02Z"/>
  </g>
</svg>