<?xml version="1.0" encoding="UTF-8"?>
<svg id="Camada_2" data-name="Camada 2" xmlns="http://www.w3.org/2000/svg" viewBox="30 50 150.74 100.05">
  <defs>
    <style>
      .cls-1 {
        fill: #D4D4D4;
      }
    </style>
  </defs>
  <path class="cls-1" d="M92.58,65.59s-6,14.29-23.12,19.06-15.88,23.29-8.12,32.29,21.35,25.24,5.82,31.41l-5.47-6.88-3.71,6.88-.18-11.82s-2.47,9-11.47,13.06c0,0,4.59-10.41,4.59-16.59s.88-18.24-.76-30.24-5.41-32,32-53.18c0,0,1.71-3.88-11.65-2.29,0,0,16.29-15.47,27.47-1.12l10.65-9.59-2.24,9.59s12.47-8.35,33.41,7.88c0,0-8.71-4.82-16.71-5.06,0,0,46.82,16.12,30.12,85.29,0,0-.8,3.29,3.6,5.29,0,0-2.19,1.41-9.84-3.76,0,0-.94,9.65,9.06,11.88,0,0-16.82,3.41-23.88-8.12s-1.76-15.53,11.88-15.65c0,0-.47-8-11.06-15.06s-23.65-13.53-29.18-26.59c0,0,.47,8.71,6.94,14.35,0,0-17.41-9.53-18.18-31.06Z"/>
</svg>