<?xml version="1.0" encoding="UTF-8"?>
<svg id="Camada_3" data-name="Camada 3" xmlns="http://www.w3.org/2000/svg" viewBox="0 0 505.93 345.47">
  <defs>
    <style>
      .cls-1 {
        fill: #c3a68a;
      }

      .cls-2 {
        fill: #fedab5;
      }
    </style>
  </defs>
  <circle class="cls-2" cx="26.21" cy="293.12" r="20"/>
  <circle class="cls-2" cx="217.69" cy="292.11" r="19.71"/>
  <circle class="cls-2" cx="41.95" cy="286.75" r="7.94"/>
  <circle class="cls-2" cx="201.99" cy="285.72" r="7.94"/>
  <g id="Camada_3-2" data-name="Camada 3">
    <g>
      <path class="cls-1" d="M41.45,295.89c-4.93,0-8.94-4.01-8.94-8.94s4.01-8.94,8.94-8.94,8.94,4.01,8.94,8.94-4.01,8.94-8.94,8.94Zm0-16.88c-4.38,0-7.94,3.56-7.94,7.94s3.56,7.94,7.94,7.94,7.94-3.56,7.94-7.94-3.56-7.94-7.94-7.94Z"/>
      <path class="cls-1" d="M8.53,284.89c-.07,0-.15-.02-.22-.05-.25-.12-.35-.42-.23-.67,.73-1.47,4.84-8.93,13.86-10.96,10.2-2.3,17.69,4.29,18.51,5.05,.2,.19,.22,.5,.03,.71-.19,.2-.5,.21-.71,.03-.78-.72-7.91-6.99-17.61-4.81-8.58,1.94-12.48,9.03-13.18,10.43-.09,.18-.26,.28-.45,.28h0Z"/>
      <path class="cls-1" d="M42.03,305.86c-.12,0-.25-.04-.34-.13-.2-.19-.21-.5-.02-.71,.04-.04,3.54-3.88,4.05-11.14,.02-.28,.25-.49,.53-.46,.28,.02,.48,.26,.46,.53-.54,7.64-4.16,11.59-4.32,11.76-.1,.11-.23,.16-.36,.16h0Z"/>
      <path class="cls-1" d="M202.66,294.87c-4.93,0-8.94-4.01-8.94-8.94s4.01-8.94,8.94-8.94,8.94,4.01,8.94,8.94-4.01,8.94-8.94,8.94Zm0-16.88c-4.38,0-7.94,3.56-7.94,7.94s3.56,7.94,7.94,7.94,7.94-3.56,7.94-7.94-3.56-7.94-7.94-7.94Z"/>
      <path class="cls-1" d="M235.57,283.87c-.18,0-.36-.1-.45-.28-.7-1.4-4.61-8.5-13.18-10.43-9.7-2.19-16.83,4.08-17.61,4.81-.2,.19-.52,.17-.71-.03s-.17-.52,.03-.71c.82-.76,8.31-7.35,18.51-5.05,9.01,2.03,13.12,9.49,13.86,10.96,.12,.25,.02,.55-.22,.67-.07,.04-.15,.05-.22,.05h0Z"/>
      <path class="cls-1" d="M202.08,304.85c-.13,0-.27-.05-.36-.16-.15-.16-3.78-4.11-4.32-11.76-.02-.28,.19-.51,.46-.53,.27-.03,.51,.19,.53,.46,.51,7.29,4.01,11.11,4.05,11.14,.19,.2,.18,.52-.02,.71-.1,.09-.22,.14-.34,.14Z"/>
    </g>
  </g>
</svg>