<?xml version="1.0" encoding="UTF-8"?>
<svg id="Camada_2" data-name="Camada 2" xmlns="http://www.w3.org/2000/svg" viewBox="0 0 262.47 225.72">
  <defs>
    <style>
      .cls-1 {
        fill: #282828;
      }

      .cls-2 {
        fill: #D4D4D4;
      }
    </style>
  </defs>
  <g>
    <path class="cls-2" d="M40.61,102.13l-10.15,52.12c20.1,8.57,53.65,19.89,96.45,20.81,48.69,1.04,86.62-11.87,107.61-20.81-6.99-18.43-13.99-36.86-20.98-55.29l41.29-16.8-32.49-45.01c-20.79,7.52-53.94,16.71-95.43,16.58-40.63-.12-73.14-9.13-93.74-16.58C22.11,52.95,11.05,68.74,0,84.54l40.61,17.6Z"/>
    <polygon class="cls-2" points="22.59 75.82 5.33 66.94 0 84.54 40.61 102.13 22.59 75.82"/>
    <polygon class="cls-2" points="232.62 72.43 250.25 64.31 254.8 82.13 213.46 97.93 232.62 72.43"/>
  </g>
  <path class="cls-1" d="M111.34,86.59c-.05,0-.1,0-.15-.02-33.13-10.43-52.13-40.12-52.32-40.42-.14-.22-.09-.5,.11-.66,.2-.16,.49-.14,.67,.04,13.83,14.16,68.11,22.21,68.65,22.29,.18,.03,.34,.15,.4,.33,.06,.18,.02,.37-.11,.51l-16.89,17.77c-.1,.1-.23,.16-.36,.16ZM61.98,48.84c5.9,7.93,23.1,28.35,49.21,36.68l16.02-16.84c-7.09-1.09-48.96-7.92-65.23-19.84Z"/>
  <path class="cls-1" d="M141.12,86.59c-.13,0-.25-.05-.35-.14l-15.59-14.93c-.2-.19-.21-.51-.02-.71l2.06-2.16-14.68-2.62c-.27-.05-.45-.3-.41-.57,.04-.27,.28-.46,.56-.42,15.89,1.95,87.8-19.43,88.52-19.64,.22-.07,.45,.03,.57,.22,.12,.2,.09,.45-.07,.61-25.16,25.76-60.06,40.18-60.41,40.32-.06,.02-.12,.04-.19,.04Zm-14.88-15.45l14.99,14.36c3.39-1.43,34.76-15.09,58.4-38.58-10.54,3.1-60.63,17.59-81.35,19.12l10.04,1.79c.18,.03,.33,.16,.39,.34,.06,.17,.01,.37-.11,.5l-2.35,2.48Z"/>
  <path class="cls-1" d="M40.78,102.82l-.86-.52,8.77-14.5L9.38,69.61l.42-.91,39.82,18.43c.13,.06,.23,.17,.27,.31,.04,.14,.02,.28-.05,.4l-9.06,14.98Z"/>
  <path class="cls-1" d="M213.47,100.4l-9.06-14.98c-.07-.12-.09-.27-.05-.4,.04-.14,.14-.25,.27-.31l39.82-18.43,.42,.91-39.31,18.19,8.77,14.5-.86,.52Z"/>
  <rect class="cls-1" x="128.82" y="74.29" width="1" height="27.79"/>
  <circle class="cls-1" cx="122.5" cy="85.75" r="4.23"/>
  <circle class="cls-1" cx="122.5" cy="97.93" r="4.23"/>
</svg>