<?xml version="1.0" encoding="UTF-8"?>
<svg id="Camada_3" data-name="Camada 3" xmlns="http://www.w3.org/2000/svg" viewBox="0 0 260.62 265.29">
  <defs>
    <style>
      .cls-1 {
        fill: #bfbfbf;
      }

      .cls-2 {
        fill: #545454;
      }
    </style>
  </defs>
  <g>
    <path class="cls-2" d="M75.72,59.29s-4.24-8.71-18.59,1.88S-3.81,111.76,24.07,197.88c0,0-.12-4.94,.41-7.06,0,0,10.62,21.71,11.76,30.88,0,0,0-7.59-.44-9.71,0,0,9.21,18.12,11.79,25.76,0,0-3.88-17.53-4.59-23.76,0,0,7.41,22.35,10.12,25.65,0,0-20.06-46.48-1.18-91.86s25.41-68.85,24.88-75.9-1.12-12.59-1.12-12.59Z"/>
    <path class="cls-2" d="M74.54,74s3.88,4.76,7.59,10.41c3.71,5.65,21.71,25.41,33.88,32.12,12.18,6.71,22.41,20.29,24.35,24.71,1.94,4.41,4.29,7.24,3.71-2.06,0,0,12.71,23.06,16.06,38.06,0,0,1.06-13.24-1.94-22.94,0,0,10.41,21.18,12.35,32.29s4.41,11.29,4.06-5.29,1.94-9.88,2.47-8.12c.53,1.76,6.53,22.94,6.35,32.65-.18,9.71,2.47,16.94,2.47,16.94l2.12-24,1.59,26.29s.71,10.24,4.59,.88c3.88-9.35,4.76-11.47,3.53-4.24-1.24,7.24-2.29,23.65-2.29,23.65l12.35-22.41s3.29-3.41,.67,2.97-5.61,13.26-1.73,10.79c3.88-2.47,18.53-21.88,22.59-34.59s5.29-4.59,5.29-2.29v12.88s4.41-20.29,4.94-23.47c.53-3.18,.88-4.24,2.47,.18,1.59,4.41,4.24,10.41,4.06,7.06-.18-3.35-2.82-16.06-3-35.82-.18-19.76,2.29-55.41-25.24-85.06-21.67-23.34-50.97-40.14-80.59-41.02-9.27-.27-34.01-1-54.58,15.25-4.13,3.27-7.17,6.48-9.18,8.82-.27,1.73-.45,3.76,1.06,15.35Z"/>
  </g>
  <g>
    <path class="cls-1" d="M82.78,64.24s10.47,31.06,38.12,37.76c0,0-13.41-7.88-16.71-19.76l13.29,9.76s6.35,5.18,2.24-1.53-6-10.59-6-10.59l4.47,3.24-3.41-10.76,18.12,14.71s6.94,5.41,1.41-5.06-12.35-18.24-16.12-20.82,15.76,3.65,28,11.29,5.2-2.62,2.47-5.41-15.76-11.13-15.76-11.13l12.35,3.48s6.35,2.47-2.59-2.94-18.82-5.18-18.82-5.18c0,0,29.65-2.35,45.76,13.06,0,0-17.05-25.06-51.74-20,0,0-26.03-.62-32.21,9.71,0,0,6.44-2.47,12.09-1.41l-3.79,2.29,10.32,.09-10.68,5.29s2.74,2.38,7.76,2.29l-8.74,.88,1.06,2.74s-7.53-3.74-10.91-2Z"/>
    <path class="cls-1" d="M48.96,75.59s-21.35,19.06-26.29,54.53c0,0,7.76-20.59,15.35-28.12,0,0-6.35,10.65-6.88,21.24l9.88-15.88s-4.88,11.08-5.21,17.29c0,0,4.05-3.39,9.31-14.13,0,0-3.75,17.13-4.28,21.19s-3.88,21,2.82,5.12,15-29.24,17.12-34.82,5.32-15.65,5.32-15.65c0,0,4.74-14.11-6.38,.89,0,0,2.82-11.12-4.06-.71,0,0,1.06-7.41-5.12,1.24,0,0,4.76-15.35-3.35-3,0,0-.18-7.59,1.76-9.18Z"/>
  </g>
</svg>