<?xml version="1.0" encoding="UTF-8"?>
<svg xmlns="http://www.w3.org/2000/svg" viewBox="0 0 427.76 439.37">
  <defs>
    <style>
      .cls-1 {
        fill: #737173;
      }

      .cls-2 {
        fill: #161316;
      }
    </style>
  </defs>
  <g id="Camada_6" data-name="Camada 6">
    <path class="cls-2" d="M195.12,98.13s7.93,34.03-26.18,57.79c-11.89,8.28-18.06,17.25-20.92,25.95-2.6,7.9-.58,18.62,3.04,39.93,1.5,8.81,3.69,19.31,2.29,19.74-.45,.13-1.13-.8-1.68-1.68-8.82-11.85-20.42-31.26-24.97-57.35-2.67-15.3-7.62-43.74,8.59-70.82,9.28-15.51,21.85-24.48,29.53-29.06-1.8-.17-3.97-.29-6.25,.4-3.84,1.16-9.1,4.25-14.81,11.96,0,0,8.94-20.94,24.94-17.18,0,0,1.06-6.12-16-6.35,0,0,10.59-5.29,18.59,1.29,0,0-3.65-23.76,22.24-30.35,0,0-15.29,10.35-17.41,28.82,0,0,7.65-6.82,12.82-12.71,5.18-5.88,30.82-30.12,88.47-17.18,29.69,6.67,52.39,18.57,69.87,32.38,8.16,6.44,25.42,20.17,36.96,41.27,27.89,51.02,2.78,109.8-1.65,119.76,2.33-21.56,1.04-38.98-.57-50.82-1.81-13.38-5.53-41.21-16.4-42.88-1.94-.3-4.05,.19-6.32,1.58-12.71,7.76-58.82,21.76-111.29,.59-7.11-5.16-14.43-10.79-21.88-16.94-11.53-9.52-21.84-19-30.99-28.14Z"/>
  </g>
  <g id="Camada_7" data-name="Camada 7">
    <path class="cls-1" d="M316.24,135.69s-10,2.94-26.35,2.59-23.76,3.18-26.12,5.41-2-4.47,2.35-6.82c0,0-3.53-.94-8-.59s-1.13-3.76-3.16-4.35-4.96,1.06-6.96-.47,0-4.47,2-5.88,2.47-2-1.41-1.76-9.82,.56-10.26-.59,1.59-2.74,2.47-4.94-3.18-3.53-5.56-3.79-11.29-.09-7.15-3.44,3.79-4.24,1.41-4.24-7.24,.62-4.15-2.47,2.59-2.47-1-2.38-5.18-3.88-10.56-8.65-10.85-6.26-10.94-7.85,1.06-3.88-2.21-3.79-5.21,.53-3.44-.79,7.32-4.06,2.82-3.79-10.41,3.88-9,.44,2.82-8.29,14.65-12.97,16.06-11.29,29.47-11.91,25.94-1.85,34.94-.71,15.79,3.44,17.03,3.88,5.21,2.56-1.32,2.91-32.82-.26-39.71,.62-19.24,4.06-22.41,5.21-6,2.82-6.97,3.26-3.53,3.09,.79,1.59,15.44-5.38,20.91-4.76,3.09,1.5-.09,1.5-17.47,3.18-19.85,6-2.74,3.35,1.24,2.91,15.26-2.47,17.74-2.03,.09,1.41-1.15,1.5-16.15,3.88-18.44,5.82-2.81,2.42,1.24,2.65,28.41-1.59,31.06-1.76,5.29,1.41,2.47,2.21-15.26,3.09-16.94,4.41-4.76,3.09-.09,2.82,13.85-.09,14.21-.09,3.97-.44-.44,2.29-7.59,2.91-7.59,2.91c0,0-3.53,1.59,1.85,1.5s13.68,0,13.68,0c0,0,3.62,.09,.18,1.94s-8.03,1.41-8.21,2.82,4.42,1.24,5.7,1.5,9.3,2.03,18.21,1.76,6.79,2.12,4.5,2.91-9.62,2.82-11.38,3.35-7.48,2.29-.74,3.26,13.89,1.76,14.24,2.12,2.74,1.15-2.21,2.12-11.29,.44-11.47,1.41,17.21,10.15,33,8.82c0,0,7.85,.97,1.41,2.12s-11.47,.35-11.65,1.41,1.94,3.26,5.56,3.44,14.74,.59,21.79-.59Z"/>
    <path class="cls-1" d="M134.35,137.81s3.76-36.12,31.41-44.94l-11.41,16.59s7.88-7.76,16.82-7.41c0,0-8.59,6.12-11.65,13.29,0,0,5.88-4,7.53-4s-2.82,8.94-2.82,8.94c0,0,12.35-8.24,5.18,1.53,0,0,10.59-6.82,11.65-9.06s-3.65,26.94-27.88,34.71c0,0,8-9.88,8.12-14,0,0-2.35,2-6.12,2.82,0,0,.94-4.82,5.18-7.88,0,0-5.41,2-6.94,6.59,0,0-.35-5.76,3.53-9.65,0,0-14.71,13.06-20,31.76,0,0-.71-22.47,16-41.88,0,0-13.41,9.06-18.59,22.59Z"/>
  </g>
</svg>